<?xml version="1.0" encoding="UTF-8" standalone="no"?>
<!-- Created with Inkscape (http://www.inkscape.org/) -->

<svg
   width="256mm"
   height="256mm"
   viewBox="0 0 256 256"
   version="1.1"
   id="svg1"
   xmlns="http://www.w3.org/2000/svg"
   xmlns:svg="http://www.w3.org/2000/svg">
  <defs
     id="defs1" />
  <g
     id="layer1">
    <path
       style="fill:#000000;fill-opacity:0.765653;stroke-width:0.30631"
       id="path1"
       d="m 64.657846,98.446495 c -0.229035,-0.03683 -0.460237,-0.06375 -0.687104,-0.110494 -0.958795,-0.197535 -1.295715,-0.298319 -2.232831,-0.715304 -0.535007,-0.238058 -2.127792,-0.968342 -1.573456,-0.770796 1.789333,0.637655 3.691963,2.062803 -0.177777,-0.51347 -2.576148,-1.829211 -4.764526,-4.032813 -6.400961,-6.617849 -0.827502,-1.307182 -0.975635,-1.758473 -1.584424,-3.112987 -0.692352,-1.748972 -1.100609,-3.528464 -0.327921,-5.322016 0.491927,-1.141843 1.022321,-1.670187 1.807587,-2.653101 1.534649,-1.503866 3.177244,-2.9896 5.219505,-3.908754 1.209289,-0.544259 1.968157,-0.70148 3.245569,-1.053022 2.04304,-0.431463 4.145618,-0.735963 6.249964,-0.674366 1.572808,0.04604 2.343098,0.196244 3.93179,0.411079 6.335752,1.178994 12.587236,2.715586 18.86961,4.111833 10.374253,2.307679 20.692723,4.973925 31.233363,6.598939 2.02375,0.311995 4.06339,0.530364 6.09509,0.795545 9.19316,0.418608 18.48391,-0.327147 27.37086,-2.591089 5.2285,-1.331947 6.38491,-1.985742 11.26935,-3.957115 7.13715,-3.43131 13.35913,-8.112675 19.31164,-13.03089 0,0 -3.73272,-2.112536 -3.73272,-2.112536 v 0 c -5.77027,5.006158 -11.91212,9.672333 -18.99719,13.063079 -4.7239,1.917264 -6.09044,2.652979 -11.14232,3.951037 -8.87317,2.279918 -18.15952,3.000479 -27.33699,2.445407 -2.02248,-0.266321 -4.05242,-0.48882 -6.06744,-0.798968 -10.59039,-1.630055 -20.957341,-4.295479 -31.353965,-6.707687 -0.80614,-0.186303 -7.650856,-1.765908 -8.842934,-2.049159 -3.425159,-0.813854 -6.838749,-1.700241 -10.335949,-2.22675 -1.691024,-0.218586 -2.358168,-0.355532 -4.025384,-0.387153 -2.134256,-0.04048 -4.258609,0.293551 -6.318962,0.774537 -1.294937,0.382198 -2.07837,0.5623 -3.304417,1.136127 -2.077768,0.972457 -3.755538,2.497419 -5.311163,4.057473 -1.049612,1.314064 -2.074544,2.586179 -2.385121,4.238389 -0.266496,1.417727 0.217555,2.790894 0.687536,4.118284 0.609161,1.374281 0.77645,1.871731 1.597866,3.199928 1.628151,2.63265 3.803166,4.894535 6.385597,6.779055 3.609193,2.469152 2.17394,1.584971 7.966557,4.679404 1.469646,0.785085 3.06544,1.406265 4.774864,1.532635 z" />
    <path
       style="fill:#000000;fill-opacity:0.765653;stroke-width:0.30631"
       id="path2"
       d="m 91.892248,77.093241 c 0.301663,2.394802 0.835112,4.764616 0.993395,7.177229 0.05016,0.764733 0.04955,1.531552 0.07432,2.297327 -0.204669,4.753472 -1.440282,9.437618 -3.080668,13.937133 -0.796657,2.1852 -2.35528,5.73779 -3.278119,7.88911 -3.19802,7.15414 -7.058204,14.03184 -11.50683,20.60073 -1.065622,1.57351 -2.204279,3.10456 -3.306418,4.65684 -4.421722,6.13813 -8.931939,12.22796 -13.744898,18.11571 0,0 3.817409,2.06528 3.817409,2.06528 v 0 c 4.584107,-6.03513 8.986277,-12.18459 13.446749,-18.29637 1.119318,-1.54927 2.271929,-3.07879 3.357956,-4.64779 4.531301,-6.54643 8.43886,-13.42525 11.662164,-20.5928 3.003519,-7.04905 6.120978,-14.221597 6.667484,-21.85367 -0.0039,-0.76749 0.02231,-1.535595 -0.01149,-2.302468 -0.103619,-2.347083 -0.57215,-4.66845 -0.852028,-6.999045 z" />
    <path
       style="fill:#000000;fill-opacity:0.765653;stroke-width:0.30631"
       id="path3"
       d="m 107.36204,90.928756 c -1.74696,5.060987 -3.12734,10.214444 -3.98541,15.468314 -0.35777,2.19054 -0.61379,4.39399 -0.92069,6.59098 -1.31758,10.46262 -2.0555,20.97357 -2.458392,31.49588 0,0 3.932622,1.84255 3.932622,1.84255 v 0 c 0.0109,-10.57816 0.53768,-21.15963 2.0058,-31.65979 0.34994,-2.16897 0.63981,-4.34678 1.04982,-6.50691 0.97885,-5.15699 2.46797,-10.231685 4.55715,-15.104499 z" />
    <path
       style="fill:#000000;fill-opacity:0.765653;stroke-width:0.30631"
       id="path4"
       d="m 107.15842,131.17707 c 2.2305,-1.62061 4.94808,-2.40361 7.66373,-3.04303 1.18674,-0.18522 2.38328,-0.54686 3.60318,-0.51197 0.29686,0.008 1.12672,0.27014 0.88193,0.11616 -0.99626,-0.62672 -2.00982,-1.35178 -3.19465,-1.57102 -0.48303,-0.0894 0.5421,0.75355 0.81315,1.13033 0.75502,1.6976 1.08897,3.5073 1.33774,5.31553 0.14208,1.03278 0.27472,2.16311 0.20294,3.20968 -0.034,0.49528 -0.14825,0.9832 -0.22237,1.4748 -0.5372,2.13151 -1.61196,4.07576 -2.89314,5.90413 0,0 4.05109,2.1595 4.05109,2.1595 v 0 c 1.27507,-1.90063 2.38173,-3.89696 2.93829,-6.08498 0.0833,-0.51129 0.21044,-1.01818 0.24974,-1.53387 0.0839,-1.10119 -0.0602,-2.18787 -0.20975,-3.27702 -0.25186,-1.83428 -0.57812,-3.6686 -1.2119,-5.4295 -0.22097,-0.43924 -0.23993,-1.02807 -0.66292,-1.31773 -4.51612,-3.09262 -5.12568,-2.93492 -9.50568,-1.99017 -2.76481,0.69375 -5.49664,1.54436 -7.85671,3.08019 z" />
    <path
       style="fill:#000000;fill-opacity:0.765653;stroke-width:0.30631"
       id="path5"
       d="m 131.31323,127.44845 c -1.10679,2.60539 -2.14676,5.24799 -3.00783,7.93324 -0.65223,2.15461 -1.06494,4.36111 -1.22953,6.59024 0,0 4.20068,1.98841 4.20068,1.98841 v 0 c 0.12451,-2.21203 0.45056,-4.41138 1.08277,-6.55369 0.82899,-2.64885 1.84025,-5.26766 3.09982,-7.7691 z" />
    <ellipse
       id="path6"
       style="fill:#000000;fill-opacity:0.765653;stroke:#000000;stroke-width:0.30631"
       cx="134.48712"
       cy="117.22261"
       rx="0.059167072"
       ry="0.054167051" />
    <path
       style="fill:#000000;fill-opacity:0.765653;stroke-width:0.30631"
       id="path7"
       d="m 134.05325,118.60322 c -0.18724,0.89408 -0.0929,0.43215 -0.28216,1.38595 0,0 4.18104,2.04047 4.18104,2.04047 v 0 c 0.19638,-0.93098 0.0917,-0.48366 0.30993,-1.34272 z" />
    <path
       style="fill:#000000;fill-opacity:0.765653;stroke-width:0.30631"
       id="path8"
       d="m 158.83105,121.82706 c -3.40507,-1.70312 -6.85562,-3.27694 -10.49858,-4.50969 -1.6619,-0.53114 -5.06944,-1.25778 -6.76144,-0.42932 -0.25056,0.12269 -0.43211,0.33791 -0.64818,0.50687 -0.13358,0.27805 -0.34272,0.53507 -0.40074,0.83414 -0.32346,1.66695 0.73775,3.56677 1.47046,4.9908 1.05108,2.04283 1.52993,2.67246 2.78951,4.60908 1.32676,1.89353 2.81782,3.65932 4.73437,5.08309 1.88188,1.39802 4.07598,2.50254 6.12689,3.66878 2.0661,1.25347 4.30734,2.27683 6.32355,3.60177 0.50006,0.32862 1.57997,1.102 1.90773,1.69636 0.11688,0.212 0.0835,0.46876 0.12527,0.70314 -0.2199,0.2224 -0.38648,0.50155 -0.65965,0.66721 -1.25957,0.76379 -3.16268,1.23108 -4.55503,1.47059 -2.36065,0.40608 -5.71551,0.63768 -8.07956,0.4758 -1.71216,-0.11724 -3.39759,-0.45573 -5.09638,-0.6836 -7.04902,-1.53961 -3.60803,-0.66439 -10.3287,-2.60679 0,0 3.31209,2.346 3.31209,2.346 v 0 c 6.72522,1.88942 3.27193,1.02943 10.36651,2.55758 1.74185,0.23185 3.47016,0.57671 5.22554,0.69551 2.33818,0.15826 5.93127,-0.0874 8.27387,-0.47134 1.44035,-0.23604 3.60884,-0.71651 4.90066,-1.56581 0.36851,-0.24228 0.58151,-0.6377 0.87226,-0.95654 -0.0141,-0.31182 0.0782,-0.64346 -0.0423,-0.93545 -0.49965,-1.2125 -2.71256,-2.33398 -3.78028,-2.94706 -0.44589,-0.25603 -4.2365,-2.36973 -4.58189,-2.5625 -2.02617,-1.15693 -4.18932,-2.25 -6.0901,-3.58164 -1.96686,-1.37794 -3.50488,-3.10534 -4.85932,-4.99354 -1.27548,-1.9256 -1.73323,-2.49828 -2.77296,-4.53705 -0.59834,-1.17331 -1.6606,-3.20205 -1.45973,-4.60337 0.0333,-0.2317 0.1978,-0.43087 0.29671,-0.64631 0.17722,-0.1216 0.33012,-0.28069 0.53164,-0.3648 1.77536,-0.74105 4.76746,0.0451 6.47137,0.56684 2.04948,0.71018 4.0456,1.47808 5.99771,2.3954 3.7778,1.77523 0.21305,0.20225 3.59685,1.77161 0.34731,0.16107 0.7052,0.30223 1.05779,0.45335 z" />
    <path
       style="fill:#000000;fill-opacity:0.765653;stroke-width:0.368272"
       id="path9"
       d="m 203.87101,128.00362 c 0.0679,3.73261 -0.0988,7.46531 -0.17208,11.1967 -0.0816,2.49994 -0.11277,4.99012 -0.0489,7.49002 0,0 4.13082,2.75479 4.13082,2.75479 v 0 c -0.10392,-2.49462 -0.10015,-4.97873 -0.009,-7.47617 0.10669,-3.69807 0.30354,-7.39021 0.36306,-11.08972 z" />
    <path
       style="fill:#000000;fill-opacity:0.765653;stroke-width:0.560152"
       id="path10"
       d="m 204.26233,120.12679 c 0.21937,0.54109 -0.37418,3.85283 -0.15473,4.39385 l 5.42229,4.65697 0.48861,-1.13863 c 0.22579,-0.52612 0.578,-3.38572 0.36851,-3.91854 z" />
    <path
       style="fill:#000000;fill-opacity:0.765653;stroke-width:0.30631"
       id="path12"
       d="m 237.45492,126.25525 c -4.62852,-2.85984 -7.75373,-3.74709 -12.97168,-4.60621 -1.40987,-0.19885 -2.85406,-0.27033 -4.05207,0.5658 -0.23454,0.1637 -0.47442,0.34013 -0.62794,0.57067 -0.17397,0.26127 -0.2196,0.57802 -0.32941,0.86703 0.065,0.38534 0.0588,0.78657 0.19491,1.15602 0.29039,0.78805 1.45825,2.61727 1.87297,3.25701 1.18335,1.82536 2.48118,3.57892 3.785,5.33274 1.83316,2.42556 3.68668,4.8576 4.70977,7.67483 0.77147,2.78904 -0.22111,4.26147 -2.44309,6.09606 -1.67049,0.97163 -3.66059,1.65474 -5.67568,1.47271 -0.35585,-0.0321 -0.70249,-0.12266 -1.05374,-0.18398 -1.29292,-0.31111 -0.66393,-0.15099 -1.88763,-0.47812 0,0 3.74376,2.6362 3.74376,2.6362 v 0 c 1.2286,0.3022 0.59388,0.15876 1.90527,0.42619 0.36777,0.0414 0.73304,0.11107 1.1033,0.12423 2.10002,0.0747 4.13627,-0.68366 5.83958,-1.74697 2.24927,-1.93934 3.43351,-3.60085 2.71578,-6.51605 -0.32181,-0.93321 -0.3852,-1.22923 -0.86534,-2.13515 -1.07254,-2.02374 -2.57033,-3.82889 -3.91235,-5.7015 -1.31046,-1.7401 -2.61702,-3.47627 -3.79254,-5.29711 -0.31617,-0.48974 -1.53295,-2.44646 -1.82142,-3.0884 -0.13525,-0.30096 -0.18348,-0.62882 -0.27523,-0.94323 0.0734,-0.22683 0.0853,-0.47887 0.22045,-0.6805 0.82862,-1.23566 3.0802,-1.01432 4.3593,-0.8443 2.20169,0.36573 4.39547,0.77096 6.48259,1.53331 0.47011,0.17171 1.79908,0.83747 1.38338,0.5731 -0.96754,-0.61535 -2.03387,-1.08904 -3.05082,-1.63357 z" />
    <g
       id="g15"
       transform="matrix(1.0323279,0,0,0.95279885,0.02065315,14.703992)">
      <path
         style="fill:#dd56ff;fill-opacity:1;stroke-width:0.264583"
         id="path13"
         d="m 9.4099068,116.56793 c 0.093227,1.04837 0.090708,2.15534 0.4350618,3.162 0.4387784,1.28271 1.0650214,2.35501 1.6928934,3.55088 1.450361,2.48523 3.188344,4.80964 5.278724,6.79335 0.450285,0.42731 0.901469,0.86051 1.410377,1.21618 0.528292,0.36922 1.124009,0.6319 1.686013,0.94785 1.73312,0.76404 3.412325,1.66196 5.19936,2.29212 1.138153,0.40135 3.444666,0.30682 4.561969,0.21656 2.823361,-0.22809 4.913414,-0.94594 7.553824,-1.8918 2.921772,-1.26484 5.746492,-2.82659 8.13851,-4.95811 1.049095,-0.93486 1.690325,-1.71692 2.606455,-2.75321 1.048597,-1.64924 1.983227,-3.4437 2.216009,-5.40819 0.135831,-1.14631 0.04721,-1.66632 -0.03364,-2.79066 -0.112633,-0.40569 -0.190053,-0.82312 -0.337892,-1.21707 -1.267487,-3.37754 -4.293636,-4.18657 -7.36928,-5.757 -3.107961,-1.31139 -6.436005,-1.87839 -9.781299,-2.18742 -2.099234,-0.0732 -4.217094,0.34893 -6.17375,1.13038 -1.046748,0.41803 -1.621441,0.77574 -2.59222,1.31536 -0.381631,0.3352 -0.791474,0.64072 -1.144894,1.00558 -2.052023,2.11844 -3.420494,4.89175 -4.666218,7.5227 -1.462033,3.33398 -1.824054,6.91435 -1.972806,10.49795 -0.04606,1.7188 -0.05635,3.46652 0.339041,5.14819 0.221402,0.94167 0.397266,1.31721 0.740658,2.23178 0.205693,0.40193 0.3617,0.83375 0.61708,1.20579 1.632431,2.37814 4.203932,4.02673 6.597514,5.5368 2.441296,1.23898 4.000173,2.33746 6.432168,2.95758 2.504267,0.63854 5.126609,0.80186 7.699136,0.95257 2.074672,0.0804 4.160732,0.14967 6.221306,-0.16943 3.228136,-0.55291 1.931084,-0.65069 -1.72091,-2.77387 -0.111458,0.003 -0.225112,0.0297 -0.334425,0.009 -0.24842,-0.0478 -0.463889,-0.20478 -0.707861,-0.27114 -0.608596,-0.16553 -1.228413,-0.30967 -1.846801,-0.43813 -2.183429,-0.43717 -4.413814,-0.33783 -6.617587,-0.0931 -1.258437,0.41231 -1.881073,0.5484 -3.066538,1.23975 -2.208668,1.28806 -4.052966,3.17144 -5.797758,5.01101 -1.132788,1.36084 -2.37954,2.71327 -3.04431,4.38117 -0.302323,0.75852 -0.61337,2.02579 -0.820234,2.8035 -0.569553,2.46602 -1.162382,4.92863 -1.353291,7.45441 0.01842,2.19394 1.221701,4.07418 2.433582,5.80931 1.159721,1.44809 2.674308,2.45764 4.31713,3.28418 4.560682,2.29457 3.424314,1.78175 6.331303,3.00893 2.776293,1.10483 5.766254,1.23989 8.722728,1.29224 2.273418,0.12572 3.417026,-0.45359 5.292058,-1.57529 0.666231,-0.34946 1.102354,-0.9209 1.586821,-1.46921 0.475004,-0.53761 0.941722,-1.03116 1.359281,-1.61661 0.778878,-1.07289 1.192097,-2.34221 1.460893,-3.6239 0.142915,-1.32086 0.318612,-2.6301 0.274851,-3.96082 -0.186915,-1.53091 -0.03197,-3.07433 0.06472,-4.60792 0.08084,-1.03377 0.06073,-2.06166 -0.08982,-3.08468 -0.110977,-0.6861 -0.166671,-1.40087 -0.513511,-2.01927 -0.06191,-0.11039 -0.302542,-0.40553 -0.229352,-0.30234 0.230033,0.32431 0.466637,0.64387 0.699956,0.96581 5.929742,2.27759 12.017752,4.10149 17.915281,6.46373 4.902068,2.33599 0.254702,0.0959 0.06169,0.10229 -0.454023,0.0151 0.736485,0.52837 1.075432,0.82797 0.731758,0.64681 1.20569,1.36939 1.633107,2.23073 0.438147,1.17614 0.598409,2.45007 -0.18714,3.53204 -0.198587,0.27351 -0.441871,0.51173 -0.662807,0.76759 -1.813884,1.85902 -4.227084,2.76795 -6.611629,3.63066 -2.492937,0.84699 -5.110471,1.13692 -7.712632,1.37765 -1.532014,0.13363 -3.066924,0.22176 -4.601668,0.30958 0,0 3.188088,2.06318 3.188088,2.06318 v 0 c 1.54166,-0.0981 3.083754,-0.19016 4.624097,-0.31024 2.625864,-0.2494 5.262795,-0.57636 7.769231,-1.4596 2.440529,-0.90576 4.881305,-1.87514 6.738612,-3.78449 0.239267,-0.27447 0.503835,-0.52885 0.717798,-0.82342 0.857044,-1.1799 0.792149,-2.5549 0.351515,-3.87043 -0.112312,-0.25325 -0.202696,-0.51755 -0.336941,-0.75971 -1.78166,-3.21406 -5.95496,-4.41677 -9.033773,-5.95808 -5.972103,-2.31675 -12.136883,-4.106 -18.042904,-6.59184 -0.43617,-0.005 -0.876463,-0.0801 -1.308508,-0.0159 -0.113775,0.0169 0.223871,0.0809 0.301004,0.16546 0.458097,0.50206 0.428855,1.29075 0.562961,1.9092 0.156898,1.00023 0.202323,1.99926 0.129506,3.01383 -0.07107,1.54947 -0.223808,3.10978 -0.05135,4.65483 0.06383,1.30511 -0.155687,2.56398 -0.277049,3.85942 -0.219319,1.24012 -0.594621,2.46003 -1.3638,3.48213 -0.790814,1.10459 -1.732467,2.17473 -2.846446,2.95456 -1.817103,1.07933 -2.961025,1.52073 -5.130503,1.42121 -2.929273,-0.0495 -5.876803,-0.25266 -8.607894,-1.39166 -3.032884,-1.29914 -0.697444,-0.35245 0.344612,0.35611 0.451642,0.30711 -0.98668,-0.47269 -1.459054,-0.74708 -1.072726,-0.62312 -2.007981,-1.4245 -2.837215,-2.34192 -0.988647,-1.35109 -2.096619,-2.88323 -2.455636,-4.55734 -0.07098,-0.331 -0.06181,-0.67487 -0.09273,-1.0123 0.139312,-2.51011 0.738782,-4.9544 1.275638,-7.40684 0.194012,-0.71574 0.523235,-2.02135 0.807713,-2.7262 0.654334,-1.62123 1.875315,-2.94939 2.942747,-4.30411 2.461361,-2.62968 5.130362,-5.2148 8.768105,-5.98957 2.205183,-0.21104 4.431602,-0.25626 6.601585,0.23448 0.978637,0.24162 1.943969,0.52674 2.910882,0.80504 -4.085348,-2.43248 -1.956283,-2.0948 -4.798126,-1.62483 -2.007796,0.30101 -4.042492,0.23437 -6.063149,0.17548 -2.560132,-0.14862 -5.159711,-0.32562 -7.635105,-1.03329 -0.571484,-0.16337 -1.984282,-1.11144 -1.677118,-0.60341 0.373641,0.61799 1.279749,0.66966 1.919623,1.00449 -1.959499,-1.20394 -3.881376,-2.44284 -5.513325,-4.08211 -0.396492,-0.39828 -0.796637,-0.79937 -1.126014,-1.25491 -0.25631,-0.35448 -0.41249,-0.77206 -0.618734,-1.15809 -0.351108,-0.90598 -0.510793,-1.23611 -0.750851,-2.16527 -0.42888,-1.66 -0.480774,-3.38795 -0.44304,-5.09657 0.117169,-3.53671 0.445142,-7.07586 1.892461,-10.36611 1.199153,-2.55738 2.587709,-5.34694 4.623169,-7.36187 0.344841,-0.34137 0.745823,-0.62076 1.118737,-0.93113 2.794409,-1.54987 5.379188,-2.42339 8.61197,-2.26943 3.335457,0.33444 6.655953,0.93268 9.725763,2.31916 -0.699684,-0.36625 -1.369559,-0.79529 -2.099051,-1.09873 -0.358256,-0.14902 0.67437,0.38907 0.976573,0.63183 1.140319,0.91597 1.849282,2.29693 2.246283,3.67385 0.106397,1.08814 0.209693,1.58696 0.08854,2.69879 -0.206394,1.8941 -1.098747,3.64816 -2.087559,5.24733 -0.921475,1.07292 -1.452023,1.75582 -2.52774,2.72008 -2.351196,2.10757 -5.137801,3.64816 -8.023412,4.87913 -0.828154,0.28882 -1.643704,0.61773 -2.484461,0.86646 -2.407624,0.71228 -4.956247,1.10537 -7.465295,0.91043 -0.706907,-0.0549 -1.586217,-0.84995 -2.096231,-0.35225 -0.419373,0.40924 0.946162,0.67526 1.419241,1.01289 -0.568162,-0.29064 -1.170904,-0.52226 -1.704482,-0.87189 -0.521446,-0.34168 -0.982331,-0.76943 -1.442262,-1.19004 -2.114606,-1.93381 -3.862746,-4.23071 -5.318545,-6.69252 -0.614711,-1.16392 -1.206331,-2.15499 -1.621802,-3.40567 -0.324208,-0.97594 -0.3362,-2.051 -0.370082,-3.06841 z" />
      <path
         style="fill:#dd56ff;fill-opacity:1;stroke-width:0.264583"
         id="path14"
         d="m 92.743185,159.33957 c -2.428917,-1.36157 -4.919492,-2.61268 -7.455023,-3.76775 -0.597674,-0.27228 -1.983023,-0.66154 -2.631583,-0.85413 -1.419337,-0.31491 -2.889997,-0.53774 -4.109144,0.47353 -0.860102,0.71345 -1.06518,1.27449 -1.651863,2.25335 -1.439658,2.96103 -2.695291,6.00019 -4.142176,8.95825 -0.58204,1.08507 -0.929696,2.14896 -0.645629,3.35758 0.476249,1.20774 1.399414,2.05482 2.414752,2.80751 1.489788,1.0517 3.17926,1.7552 4.842408,2.50951 0.476137,0.21596 1.211703,0.16029 1.719891,0.17854 1.670355,-0.0173 3.339379,-0.12834 5.007371,-0.22436 1.542892,0.0346 3.021113,-0.37376 4.520456,-0.67616 1.39548,-0.47162 2.818878,-0.83322 4.237108,-1.22028 1.243322,-0.29873 2.211969,-1.09918 3.245525,-1.80792 0.137593,-0.12021 0.271363,-0.24498 0.412779,-0.36064 0.452923,-0.37047 0.394596,-0.24569 0.792624,-0.6935 0.341267,-0.38397 0.615452,-0.83507 0.931349,-1.24 1.10138,-1.1624 1.83387,-2.59033 2.73939,-3.89741 1.15945,-1.70547 2.27062,-2.38263 4.22001,-2.88374 1.70168,-0.36821 3.1771,-0.43802 4.88618,-0.18559 0.34163,0.0549 0.73608,0.0915 1.05911,0.23688 0.14077,0.0634 0.53201,0.31098 0.39189,0.24624 -1.02919,-0.47557 -2.01113,-1.05382 -3.06202,-1.48005 -0.15707,-0.0638 0.24145,0.23947 0.34104,0.37645 0.10723,0.14748 0.18411,0.31496 0.27617,0.47243 0.58745,1.50167 0.65202,3.15092 0.75639,4.74714 0.0312,0.90596 0.20128,1.96147 -0.29625,2.79412 -0.27318,0.45718 -0.69765,0.78228 -1.08415,1.13154 -1.55945,1.2472 -3.32293,2.06767 -5.23115,2.59205 -1.76702,0.4163 -3.56773,0.61328 -5.352412,0.2737 -0.211212,-0.0687 -0.428508,-0.12126 -0.633645,-0.20615 -0.177023,-0.0733 -0.682176,-0.34816 -0.508844,-0.26668 1.017043,0.47811 1.996471,1.03956 3.040371,1.45673 0.15047,0.0601 -0.22949,-0.2317 -0.31656,-0.36823 -0.23168,-0.36329 -0.28431,-0.65936 -0.40272,-1.06894 -0.2477,-1.15916 -0.28476,-2.35049 -0.32853,-3.53268 -0.1724,-1.53738 0.20639,-3.01603 0.61123,-4.49032 0.62775,-1.99321 1.82369,-3.79854 3.49558,-5.06364 0.98055,-0.61074 2.11933,-0.86175 3.25676,-0.7434 0.39856,-0.003 0.72331,0.13393 1.06616,0.31042 0.10283,0.0529 0.41393,0.20667 0.3106,0.15471 -3.2721,-1.64565 -4.14744,-2.22795 -2.8736,-1.40214 0.85357,0.91183 1.46531,2.05027 2.09875,3.12452 0.83661,1.26946 1.52244,2.6325 2.40982,3.86744 0.82405,1.18552 1.56383,2.42745 2.33381,3.64866 0.91016,1.29617 1.7201,2.65348 2.62622,3.95269 0.79029,1.19686 1.95984,1.92762 3.19603,2.59109 1.42863,0.65719 2.82192,1.39607 4.28588,1.97158 0.29655,0.11658 2.14656,0.22415 2.38309,0.23628 1.20088,0.0616 2.40269,0.0605 3.60515,0.0512 1.33927,-0.11628 2.73502,0.0647 4.05752,-0.2202 1.46526,-0.88831 2.23309,-2.55253 3.01755,-4.0101 1.12316,-2.11947 2.17217,-4.28344 3.08438,-6.50126 0.55907,-1.49214 1.02939,-3.01472 1.68791,-4.46814 0.2082,-0.39312 0.45797,-0.75761 0.84098,-0.99871 0.0968,-0.0609 0.19579,-0.12927 0.30772,-0.15154 0.0992,-0.0197 0.39104,0.0757 0.30118,0.0304 -1.02599,-0.51788 -2.08387,-0.97079 -3.12581,-1.45619 0.20982,0.19676 0.45351,0.36266 0.62946,0.59028 1.18788,1.53662 1.8507,3.52855 2.53543,5.31463 0.51327,1.33885 1.12878,3.04145 1.62595,4.40432 0.14406,0.3923 0.79541,2.19961 1.03089,2.73698 0.0763,0.17419 0.10404,0.41376 0.27307,0.50064 1.20274,0.61815 2.43056,1.23829 3.74485,1.56437 0.19962,0.0496 0.16111,-0.38248 0.21231,-0.5826 0.0691,-0.26976 0.0981,-0.5479 0.14709,-0.82185 0.31537,-2.38179 1.08016,-4.50168 2.14743,-6.64548 1.25568,-2.20963 2.7824,-4.33281 4.69187,-6.02781 0.49144,-0.32766 1.01732,-0.76994 1.61816,-0.88961 0.14086,-0.0281 0.29222,-0.0345 0.43012,0.004 0.15691,0.0434 0.57561,0.30231 0.42812,0.23377 -0.99698,-0.46333 -1.9849,-0.94567 -2.97735,-1.4185 1.78309,1.75296 3.11778,3.93698 4.30375,6.12589 0.79505,1.84266 1.64424,3.67458 2.2586,5.58953 0.30434,1.13246 0.68999,2.22535 0.8305,3.39556 0.2708,1.51756 0.0781,0.87854 3.8035,1.5021 0.19926,0.0334 0.11458,-0.38918 0.16897,-0.58458 0.32475,-1.16646 0.65877,-2.32728 1.00922,-3.48671 0.77446,-2.43858 1.85464,-4.7294 3.21488,-6.89204 0.88103,-1.45803 1.93959,-2.17915 3.52317,-2.70011 1.06294,-0.16903 2.09436,0.0421 3.06771,0.46927 0.22692,0.0996 0.88326,0.44899 0.65941,0.34276 -0.93681,-0.44457 -1.86576,-0.90531 -2.79864,-1.35797 1.50892,0.91943 2.4383,2.35855 3.29935,3.8519 0.97762,1.77841 1.73826,3.66329 2.75552,5.41947 2.04391,3.24606 3.92268,3.60886 7.5543,5.35343 1.20201,0.29019 2.47884,0.47195 3.71356,0.22806 0.61179,-0.12082 0.96091,-0.31114 1.52351,-0.55948 1.80572,-0.89794 2.32819,-1.79504 3.03991,-3.6192 0.61815,-1.88966 0.89523,-3.85017 0.728,-5.82295 -0.59084,-2.63824 -0.73465,-2.89509 -4.28455,-4.06555 -0.2226,-0.0734 -0.23303,0.41762 -0.28527,0.64725 -0.0677,0.29754 -0.0463,0.60782 -0.0694,0.91174 -0.20255,3.99168 -0.63489,7.97009 -0.93205,11.95649 -0.29536,4.405 -0.2206,8.81753 -0.33975,13.22626 -0.0909,1.82449 -0.29134,3.64129 -0.46728,5.4594 -0.1007,1.04068 -0.16587,2.08358 -0.35494,3.11321 -1.32383,-0.19069 2.23756,1.20341 3.46698,1.23674 0.3829,0.0104 -0.0372,-0.76608 -0.0277,-1.14933 0.0153,-0.61423 0.0539,-1.22811 0.10239,-1.84089 0.15732,-1.98752 0.31619,-3.04677 0.57035,-5.06673 0.52539,-4.04813 1.37763,-8.03151 2.34924,-11.99446 0.3949,-1.92635 0.59535,-3.88852 0.79438,-5.84212 0.0412,-1.60717 0.37334,-3.18051 0.55774,-4.77356 0.11047,-1.05521 0.0911,-2.11543 0.12177,-3.17345 0.0292,-1.00846 0.0201,-0.43584 0.0185,-0.33566 -1.19021,-0.46394 -2.33051,-1.08096 -3.57062,-1.39183 -0.16864,-0.0423 0.0461,0.34524 0.078,0.51631 0.0403,0.21623 0.0922,0.43005 0.13831,0.64507 0.188,0.87601 0.39361,1.74127 0.62432,2.60679 0.59514,1.79932 1.05421,3.64736 1.71377,5.42413 0.88397,1.94114 1.92284,1.9642 4.55013,3.02738 0.44601,0.18049 1.99149,-0.58831 2.39348,-0.77087 1.83102,-0.86164 3.17934,-2.14979 4.463,-3.6826 2.01939,-2.59716 3.64203,-5.47947 5.19511,-8.36964 0.91117,-1.82757 2.01395,-3.55523 2.91633,-5.38723 0.79612,-1.6163 1.47143,-3.30087 2.13762,-4.97278 0.54065,-1.48377 0.96329,-3.05196 0.87805,-4.64327 -0.032,-0.60531 -0.14202,-0.92027 -0.28951,-1.48765 -0.43901,-1.26442 -1.0547,-2.12104 -2.12744,-2.9041 -1.6073,-0.82128 -4.34757,-2.84632 -6.37936,-2.47176 -0.99248,0.18296 -1.22507,0.46617 -2.06756,1.02345 -0.32431,0.33083 -0.68735,0.62775 -0.97293,0.9925 -2.13416,2.72583 -2.83126,6.25826 -3.48738,9.55219 -0.43741,2.90293 -0.63172,5.85819 -0.37393,8.78242 0.16675,1.89212 0.31147,2.40777 0.66281,4.27808 0.76611,2.91735 1.45401,5.87216 2.46486,8.71598 0.36139,0.69629 0.78469,1.44543 1.5146,1.82466 3.41014,1.77172 3.54138,2.075 6.42007,2.35548 3.89729,0.15653 6.86563,-2.17309 9.83532,-4.40584 2.77992,-2.39122 4.97904,-5.3885 6.21634,-8.84103 0.19205,-0.8527 0.0731,-1.89943 -0.80337,-2.3442 -3.87153,-1.96471 -2.58322,-1.82169 -4.62421,-1.92795 -0.22881,0.0996 -0.48807,0.14695 -0.68644,0.29879 -1.48676,1.138 -1.86825,4.29211 -2.12904,6.01387 -0.33373,2.30804 0.22415,4.5322 0.91534,6.70803 0.47902,1.08473 0.60951,2.52878 1.53112,3.37665 0.19562,0.17998 0.4316,0.31054 0.6474,0.4658 2.08494,1.05084 4.3889,2.61968 6.90058,2.53916 0.6923,-0.0222 1.11287,-0.16831 1.77797,-0.33833 1.15176,-0.43531 2.19357,-1.06162 3.19662,-1.76544 0,0 -3.39772,-1.93777 -3.39772,-1.93777 v 0 c -0.95814,0.67918 -1.96742,1.28014 -3.08683,1.65446 -1.27009,0.26924 -2.21877,0.29201 -3.48148,-0.0501 -0.28608,-0.0775 -1.09497,-0.43492 -0.8445,-0.2773 0.84031,0.52881 1.75307,0.93378 2.62961,1.40068 -0.22099,-0.11842 -0.45853,-0.21031 -0.66296,-0.35527 -1.01573,-0.72022 -1.167,-2.20502 -1.64767,-3.25044 -0.71922,-2.1127 -1.26873,-4.30134 -1.01956,-6.55878 0.20762,-1.46772 0.58384,-4.75733 2.00227,-5.59765 0.17857,-0.10577 0.40242,-0.0988 0.60363,-0.14818 1.66321,0.25833 0.67957,0.17038 -2.3401,-1.49393 -0.16075,-0.0886 0.34232,0.14253 0.49008,0.25131 0.56722,0.41762 0.6738,0.97508 0.56125,1.64478 -1.05689,3.43913 -3.21488,6.39122 -5.94494,8.72076 -2.98645,2.20021 -5.95242,4.36235 -9.83113,4.07181 -0.36164,-0.0471 -0.72631,-0.0759 -1.08493,-0.14148 -0.33793,-0.0618 -1.27457,-0.44739 -1.00182,-0.23989 0.77184,0.58724 1.68964,0.95445 2.54446,1.41356 0.23052,0.12381 -0.46811,-0.24216 -0.67091,-0.40731 -0.41232,-0.33574 -0.65349,-0.76934 -0.94277,-1.20269 -1.09595,-2.83012 -1.85189,-5.78633 -2.63298,-8.71686 -0.34867,-1.81312 -0.5057,-2.40007 -0.68408,-4.23537 -0.28145,-2.89593 -0.0786,-5.81632 0.33798,-8.69504 0.61167,-3.22474 1.30835,-6.68844 3.4737,-9.30259 0.27905,-0.33689 0.63195,-0.60511 0.94793,-0.90766 0.85032,-0.4981 1.00061,-0.71779 1.98093,-0.80713 0.27941,-0.0257 0.56207,0.0165 0.8383,0.0623 0.2518,0.0417 0.95382,0.33527 0.73881,0.19886 -0.92844,-0.5891 -4.12018,-2.14729 -2.13593,-1.17297 0.13131,0.0864 0.86418,0.55785 1.00052,0.68796 0.55698,0.53155 0.88437,1.29675 1.22555,1.96892 0.15081,0.47153 0.31163,0.89714 0.36225,1.39779 0.15659,1.54827 -0.24462,3.09717 -0.7412,4.55094 -0.63277,1.67078 -1.28429,3.34873 -2.06919,4.95663 -0.55861,1.14432 -1.35909,2.5006 -1.97151,3.61327 -0.32255,0.58604 -0.63573,1.17714 -0.95359,1.76571 -1.56965,2.8542 -3.18885,5.71243 -5.24477,8.25289 -1.25594,1.44201 -2.635,2.71893 -4.40101,3.51241 -0.51661,0.21141 -1.0364,0.47027 -1.60177,0.53116 -0.22018,0.0237 -0.84339,-0.16422 -0.66235,-0.0385 0.91444,0.63521 1.95137,1.07438 2.92704,1.61158 -0.12352,-0.12492 -0.26625,-0.23336 -0.37056,-0.37478 -0.12227,-0.1658 -0.20217,-0.35922 -0.30325,-0.53883 -0.71698,-1.74982 -1.15837,-3.60118 -1.75521,-5.3944 -0.2815,-1.05297 -0.53402,-2.11314 -0.72812,-3.1867 -0.0288,-0.15901 0.0697,-0.39127 -0.0644,-0.48063 -1.14106,-0.76035 -2.40851,-1.31313 -3.61277,-1.96969 -0.0777,0.34025 -0.005,0.86781 -0.005,1.19185 -0.002,0.81989 -0.0249,1.64053 -0.0992,2.45799 -0.17827,1.59906 -0.52874,3.17514 -0.53838,4.78949 -0.17971,1.9428 -0.42626,3.88372 -0.74929,5.80853 -0.84816,4.0161 -1.60945,8.04372 -2.19084,12.10695 -0.32449,2.28288 -0.67422,4.56876 -0.87001,6.86663 -0.0324,0.38042 -0.3371,0.88208 -0.0615,1.14348 3.25741,3.08899 3.02042,3.4358 3.67404,1.99445 0.26135,-2.89063 0.43743,-5.78927 0.68501,-8.68105 0.11955,-4.41108 -0.0391,-8.82603 0.28053,-13.2332 0.30533,-3.96281 0.73627,-7.91524 1.10814,-11.87152 0.19354,-1.98237 0.18508,-1.20357 -3.18902,-2.6812 -0.16751,-0.0734 0.1826,0.31752 0.25702,0.48462 0.28446,0.63881 0.30557,0.83488 0.49384,1.53469 0.20585,1.91359 -0.0321,3.82318 -0.64104,5.65959 -0.69064,1.71286 -1.1907,2.52568 -2.91056,3.33366 -1.81148,0.72361 -3.20295,0.65005 -5.05803,0.0899 0.85844,0.46477 1.7219,0.92046 2.57531,1.39431 0.26515,0.14723 -0.55478,-0.25085 -0.81021,-0.41423 -1.04959,-0.67133 -1.87527,-1.68293 -2.55937,-2.70369 -1.05315,-1.73247 -1.80743,-3.6129 -2.74563,-5.40814 -0.85318,-1.51883 -1.73094,-3.03311 -3.2158,-4.02468 -1.52046,-0.80518 -4.21962,-2.64073 -6.35195,-2.83447 -0.69507,-0.0632 -0.91007,0.0183 -1.59825,0.13225 -1.57696,0.58841 -2.78542,1.45008 -3.64236,2.94053 -1.33758,2.21165 -2.35077,4.57027 -3.19317,7.01127 -0.37245,1.14697 -0.746,2.2937 -1.11051,3.44317 -0.0565,0.17788 -0.3118,0.41997 -0.16611,0.5346 1.04067,0.81889 2.25649,1.39024 3.41925,2.02524 0.0672,0.0367 -0.0631,-0.13973 -0.0947,-0.2096 -0.15905,-1.19463 -0.49938,-2.31863 -0.83035,-3.47202 -0.60798,-1.96068 -1.55888,-3.7935 -2.32423,-5.69308 -1.17038,-2.21335 -2.51618,-4.34477 -4.13652,-6.25716 -1.31269,-0.69691 -2.60281,-1.43759 -3.93806,-2.09075 -0.9248,-0.45237 -1.99334,0.55526 -2.66166,1.03503 -1.87527,1.78896 -3.39796,3.95255 -4.69643,6.18367 -0.53465,1.04343 -0.77625,1.44623 -1.19486,2.51917 -0.52786,1.35295 -0.74757,2.78124 -1.0726,4.18741 -0.45167,2.15364 -0.80181,1.11744 3.07317,2.88346 0.1799,0.082 -0.28119,-0.28441 -0.37675,-0.45745 -0.19968,-0.36161 -0.34336,-0.75197 -0.5019,-1.1337 -0.22494,-0.54162 -0.43221,-1.09053 -0.64832,-1.6358 -1.05662,-2.78323 -0.55807,-1.45077 -1.65254,-4.41828 -0.7693,-2.08583 -1.45048,-4.30779 -2.83504,-6.08057 -3.06425,-1.45852 -4.02559,-3.12491 -5.56109,-0.37755 -0.63874,1.46948 -1.11244,2.99549 -1.65135,4.50236 -0.86594,2.22037 -1.91068,4.37391 -3.05601,6.46473 -0.71351,1.30343 -1.4828,3.0313 -2.91815,3.65983 -1.30565,0.18337 -2.63373,0.14786 -3.94678,0.21196 -1.61212,0.0132 -3.24303,0.0333 -4.84194,-0.19133 -0.36973,-0.0519 -1.38688,-0.44687 -1.09986,-0.20968 0.76323,0.63076 1.73078,0.96417 2.59615,1.44626 -1.22884,-0.61293 -2.43778,-1.27844 -3.26065,-2.41488 -0.90883,-1.29646 -1.73428,-2.63993 -2.638,-3.93883 -0.77927,-1.21654 -1.50663,-2.46518 -2.30618,-3.66884 -0.92928,-1.20544 -1.60704,-2.57212 -2.45508,-3.83419 -0.61255,-1.11097 -1.28252,-2.19102 -1.98098,-3.24738 -1.32271,-1.17693 -0.22332,-0.23914 -4.05646,-2.17777 -0.45429,-0.22976 -0.9508,-0.32266 -1.45835,-0.33683 -1.19546,-4.5e-4 -2.37761,0.31227 -3.36612,1.01117 -1.668206,1.38059 -2.886473,3.25243 -3.578217,5.29782 -0.430341,1.49241 -0.889016,3.0058 -0.727757,4.57269 0.05398,1.20827 0.104271,2.42189 0.306955,3.61497 0.08264,0.35371 0.285423,1.4567 0.618997,1.66498 1.634257,1.02033 3.181642,2.04743 5.030522,2.48157 1.81634,0.23472 3.64849,0.0208 5.42519,-0.43079 1.93955,-0.5833 3.73975,-1.46544 5.33114,-2.74297 0.45076,-0.41662 0.8715,-0.74245 1.19094,-1.27833 0.53141,-0.89146 0.39883,-1.98761 0.34507,-2.96255 -0.10954,-1.63642 -0.16908,-3.3053 -0.65752,-4.87949 -0.0753,-0.1654 -0.36402,-0.87759 -0.55263,-0.9946 -1.84952,-1.14754 -3.29138,-2.22413 -5.33347,-2.46816 -1.66128,-0.18614 -3.31597,-0.0581 -4.94974,0.32996 -1.99753,0.58289 -3.15606,1.37143 -4.338825,3.12995 -0.905987,1.30043 -1.6856,2.68933 -2.779682,3.84874 -0.638571,0.79884 -1.198593,1.6275 -2.081745,2.19149 -0.990894,0.70403 -1.95563,1.42403 -3.164841,1.69595 -1.4114,0.37323 -2.801316,0.80835 -4.204522,1.21125 -1.486759,0.30048 -2.961748,0.64117 -4.487611,0.63154 -1.667237,0.0978 -3.338087,0.21758 -5.007777,0.16974 -0.459168,-0.0369 -0.711733,-0.0401 -1.157639,-0.14038 -0.170428,-0.0383 -0.654712,-0.23205 -0.503104,-0.14587 5.478438,3.11413 3.251576,1.70891 2.058942,1.02136 -1.030771,-0.76309 -1.90318,-1.36383 -2.491524,-2.5672 -0.422717,-1.13041 -0.0073,-2.06663 0.465479,-3.12675 1.33012,-2.99328 2.528171,-6.04892 4.062261,-8.94671 0.57349,-0.88672 0.79177,-1.43022 1.620702,-2.04828 1.170122,-0.87245 2.612892,-0.52965 3.903086,-0.23404 0.413904,0.1276 0.83178,0.24323 1.241717,0.38282 0.453845,0.15453 1.707,0.81664 1.348641,0.49919 -0.578436,-0.5124 -1.371563,-0.71588 -2.03715,-1.10911 -0.688841,-0.40696 1.414221,0.74957 2.112292,1.14063 0.177217,0.0993 0.358708,0.1908 0.538063,0.28621 z" />
    </g>
    <path
       style="fill:#d600c4;fill-opacity:0.585796;stroke-width:0.244241"
       id="path15"
       d="m 24.491016,192.15264 c 0.495881,1.95826 1.077529,2.50588 3.151281,3.44751 1.491036,0.56733 2.960201,1.17667 4.473108,1.70202 0.325603,0.11308 0.683581,0.14722 1.028886,0.20852 1.743376,0.30959 3.496872,0.37063 5.279801,0.37342 3.785764,-0.07 7.413048,-1.01779 10.981619,-2.07015 2.535008,-0.70998 4.899633,-1.77656 7.248734,-2.85057 1.052694,-0.52761 2.005093,-1.20016 3.045483,-1.74215 0.676854,-0.35262 1.213441,-0.5373 1.93801,-0.81915 1.417954,-0.42027 2.872914,-0.8752 4.36481,-1.04667 0.578162,-0.0665 1.142084,-0.0396 1.719367,-0.0299 1.287447,0.22926 4.276946,1.35019 -1.194709,-0.69446 -0.270607,-0.10112 0.526875,0.22957 0.772423,0.3688 0.779531,0.44201 0.992707,0.68253 1.681026,1.26153 1.287572,1.31165 2.640408,2.58039 3.85769,3.94201 0.227822,0.25483 1.487905,1.77538 1.711975,2.04493 1.546247,1.9841 3.250853,3.8474 5.224896,5.52919 3.108931,2.51862 6.993162,4.12775 10.966355,5.46863 1.375715,0.40156 2.832888,0.67762 4.308767,0.62937 1.126502,-0.0367 1.908132,-0.20577 3.037986,-0.38844 2.542086,-0.54977 5.097506,-1.08594 7.571186,-1.85191 0.58608,-0.18148 3.56463,-1.21902 4.12013,-1.4115 0.7069,-0.24939 1.41505,-0.49608 2.12069,-0.74819 1.68386,-0.60161 2.53006,-0.88858 4.15414,-1.6059 1.83412,-0.81007 3.61714,-1.72321 5.42598,-2.57537 3.52145,-1.58206 7.26481,-2.75077 11.03586,-3.78457 4.80126,-1.36936 9.80029,-1.98519 14.78393,-2.51245 3.42321,-0.18962 6.9974,-0.49723 10.33416,0.25974 0.29674,0.11771 1.19024,0.46484 0.89019,0.35313 -0.80879,-0.30108 -1.55554,-0.74645 -2.41666,-0.92141 -0.41263,-0.0838 0.69022,0.41468 1.02105,0.63787 1.10651,0.74647 2.12474,1.59033 3.15504,2.40997 1.71816,1.40454 3.31178,2.91671 4.79412,4.50441 1.6924,1.97382 3.66497,3.73673 5.88687,5.27531 2.11634,1.30932 4.5161,2.20612 6.91897,3.09146 1.17928,0.43451 2.98083,0.65229 4.25897,0.86811 2.44389,0.27927 4.86166,0.68333 7.33033,0.80093 3.3804,0.0701 6.74611,-0.35057 10.07325,-0.88501 3.40381,-0.66501 6.72994,-1.5916 9.96693,-2.72759 2.11802,-0.72202 4.00926,-1.83809 6.05301,-2.69208 1.04616,-0.43714 2.25813,-0.85052 3.32956,-1.23095 3.92068,-1.41704 7.96407,-2.55284 12.06668,-3.4802 1.43263,-0.30146 2.87551,-0.56573 4.32924,-0.76999 0.49214,-0.0691 1.44107,-0.20279 1.96181,-0.18686 0.29428,0.009 0.58138,0.0724 0.87205,0.10855 0.28096,0.0795 0.56776,0.14608 0.84289,0.23868 0.29484,0.0992 0.57743,0.22219 0.86468,0.33591 0.30517,0.12084 1.21717,0.48962 0.91256,0.36776 -0.82937,-0.33179 -1.64164,-0.69509 -2.48688,-0.99757 -0.3031,-0.10846 0.57392,0.27191 0.85653,0.41411 0.2585,0.13007 0.51103,0.26837 0.76656,0.40254 1.45538,0.94207 2.982,1.79759 4.48008,2.68761 2.13259,1.16785 4.50293,1.99771 6.8168,2.88415 1.20577,0.45633 2.55503,0.41237 3.85496,0.3466 0,0 -3.24223,-1.73897 -3.24223,-1.73897 v 0 c -1.30275,0.022 -2.61391,0.003 -3.79656,-0.49814 -1.23236,-0.47369 -3.65843,-1.4937 1.78656,0.78553 0.19483,0.0815 -0.38902,-0.16422 -0.58505,-0.24369 -0.84003,-0.34065 -0.32397,-0.0917 -1.14031,-0.5328 -1.47501,-0.92637 -3.08644,-1.70028 -4.49162,-2.71265 -1.93771,-1.04423 -3.81066,-1.77292 -5.95786,-2.66591 -0.41715,-0.17349 -1.37021,-0.54316 -1.82305,-0.66967 -0.28784,-0.0804 -0.58803,-0.12675 -0.88203,-0.19015 -0.30351,-0.0179 -0.60574,-0.0581 -0.91049,-0.0534 -0.51567,0.008 -1.46366,0.15398 -1.95175,0.23175 -1.43331,0.22815 -2.85316,0.51941 -4.26596,0.83281 -4.1027,0.97328 -8.15992,2.11594 -12.10443,3.51048 -1.26301,0.44843 -2.13439,0.73701 -3.35814,1.25222 -2.0323,0.85562 -3.93155,1.94381 -6.04185,2.65967 -3.21409,1.11161 -6.51677,2.03204 -9.88997,2.6881 -3.34447,0.51455 -6.72892,0.90437 -10.11973,0.76498 -2.44075,-0.14867 -4.84635,-0.51226 -7.26147,-0.81578 -0.97073,-0.17027 -1.9066,-0.31835 -2.85961,-0.55043 -0.45913,-0.11181 -1.72306,-0.64168 -1.3603,-0.37995 0.60105,0.43363 1.39589,0.62658 2.1067,0.91846 0.80521,0.33065 -3.17107,-1.36753 -2.30068,-1.1694 -2.24661,-1.49231 -4.24379,-3.22254 -5.90903,-5.1999 -1.43951,-1.63476 -3.08768,-3.12716 -4.79479,-4.55921 -1.02811,-0.82157 -2.04354,-1.66188 -3.12335,-2.43485 -0.32326,-0.2314 -0.62239,-0.49596 -0.99101,-0.67222 -3.25334,-1.55556 -3.14594,-1.48985 -5.31558,-2.20651 -3.34663,-0.59065 -6.83258,-0.30906 -10.22887,-0.0653 -5.02053,0.53835 -10.05194,1.1631 -14.89506,2.52605 -3.78849,1.05098 -7.55748,2.22272 -11.08829,3.83315 -1.78691,0.85956 -3.55441,1.77513 -5.37749,2.57584 -1.51536,0.66556 -2.56938,1.03236 -4.14028,1.59129 -0.70642,0.25135 -1.41598,0.49593 -2.12396,0.74389 -0.9541,0.32672 -3.1426,1.08687 -4.12579,1.38183 -2.47803,0.74338 -5.02798,1.29501 -7.579996,1.79346 -0.563856,0.0754 -1.124925,0.17209 -1.691568,0.22627 -1.912968,0.18281 -3.801395,-0.0704 -5.578395,-0.64105 -0.397518,-0.14023 -1.561204,-0.60843 -1.192556,-0.42067 0.654322,0.33328 1.346945,0.61493 2.054562,0.85971 0.474452,0.16413 -0.912562,-0.39516 -1.352539,-0.61686 -0.836499,-0.42146 -1.809755,-1.00752 -2.563342,-1.52748 -0.417821,-0.28829 -0.81097,-0.60148 -1.216458,-0.90225 -1.998655,-1.66616 -3.672958,-3.49422 -5.233471,-5.47289 -0.573803,-0.68815 -1.12188,-1.39253 -1.717701,-2.06672 -1.204813,-1.36328 -2.56607,-2.6183 -3.803881,-3.95845 -0.559803,-0.51187 -0.950012,-0.92219 -1.606371,-1.33429 -0.236516,-0.14852 -0.492358,-0.2756 -0.755623,-0.38754 -2.010268,-0.85478 -3.615337,-1.78616 -5.767023,-2.01666 -2.16871,0.0401 -4.110111,0.54327 -6.138669,1.21737 -0.836081,0.32968 -1.217638,0.45303 -1.992633,0.86022 -1.030403,0.54139 -1.987045,1.19173 -3.038768,1.70612 -2.284497,1.09972 -4.604014,2.1574 -7.097784,2.85907 -3.55339,1.04909 -7.184627,1.94124 -10.95367,1.95288 -1.432372,-0.0221 -2.825894,-0.0819 -4.236049,-0.28706 -0.3495,-0.0508 -0.697339,-0.10987 -1.042253,-0.17828 -0.336758,-0.0668 -1.278291,-0.40148 -1.001797,-0.22714 0.713165,0.44964 1.564559,0.71679 2.346838,1.07517 -1.154609,-0.46269 -2.390284,-0.93735 -2.881521,-2.02949 -0.162506,-0.3613 -0.137609,-0.77379 -0.295776,-1.13651 z" />
  </g>
</svg>
